<svg width="9" height="7" viewBox="0 0 9 7" fill="none" xmlns="http://www.w3.org/2000/svg">
<path fill-rule="evenodd" clip-rule="evenodd" d="M4.45487 2.54571C4.37231 2.54571 4.28939 2.5177 4.22211 2.46133L2.04004 0.642913C1.88584 0.51419 1.86511 0.285064 1.99349 0.130859C2.12223 -0.0237126 2.35099 -0.0440679 2.50555 0.0843196L4.45887 1.71179L6.40891 0.142852C6.56529 0.0170283 6.79477 0.0417476 6.92024 0.19815C7.04644 0.354522 7.02134 0.583282 6.86496 0.709472L4.68289 2.46533C4.61634 2.5188 4.5356 2.54571 4.45487 2.54571ZM4.46213 5.54141L7.87464 2.79523C8.1483 2.57565 8.54989 2.61893 8.76945 2.89197C8.98966 3.16626 8.94638 3.56656 8.67272 3.78741L4.85417 6.86008C4.7377 6.95361 4.59641 7.00009 4.45513 7.00009C4.31002 7.00009 4.16555 6.95108 4.04781 6.85245L0.229263 3.67032C-0.0412182 3.44565 -0.0774944 3.04471 0.1478 2.77423C0.372458 2.50436 0.773406 2.46747 1.04389 2.69275L4.46213 5.54141Z" fill="white"/>
</svg>
