<svg width="46" height="46" viewBox="0 0 46 46" fill="none" xmlns="http://www.w3.org/2000/svg">
<g filter="url(#filter0_d)">
<path d="M37 23C37 30.732 30.732 37 23 37C15.268 37 9 30.732 9 23C9 15.268 15.268 9 23 9C30.732 9 37 15.268 37 23Z" fill="#EF96F0"/>
</g>
<g filter="url(#filter1_d)">
<path fill-rule="evenodd" clip-rule="evenodd" d="M23 36.2C30.2902 36.2 36.2 30.2902 36.2 23C36.2 15.7098 30.2902 9.8 23 9.8C15.7098 9.8 9.8 15.7098 9.8 23C9.8 30.2902 15.7098 36.2 23 36.2ZM23 37C30.732 37 37 30.732 37 23C37 15.268 30.732 9 23 9C15.268 9 9 15.268 9 23C9 30.732 15.268 37 23 37Z" fill="#7D1F7E"/>
</g>
<path d="M35 23C35 29.6274 29.6274 35 23 35C16.3726 35 11 29.6274 11 23C11 16.3726 16.3726 11 23 11C29.6274 11 35 16.3726 35 23Z" fill="#D99DDA"/>
<path fill-rule="evenodd" clip-rule="evenodd" d="M23 34.3C29.2408 34.3 34.3 29.2408 34.3 23C34.3 16.7592 29.2408 11.7 23 11.7C16.7592 11.7 11.7 16.7592 11.7 23C11.7 29.2408 16.7592 34.3 23 34.3ZM23 35C29.6274 35 35 29.6274 35 23C35 16.3726 29.6274 11 23 11C16.3726 11 11 16.3726 11 23C11 29.6274 16.3726 35 23 35Z" fill="#7D1F7E"/>
<path d="M21.6347 20.317V23.086H26.0287V24.516H21.6347V28H19.9447V18.9H26.5877V20.317H21.6347Z" fill="#7D1F7E"/>
<defs>
<filter id="filter0_d" x="5" y="5" width="36" height="36" filterUnits="userSpaceOnUse" color-interpolation-filters="sRGB">
<feFlood flood-opacity="0" result="BackgroundImageFix"/>
<feColorMatrix in="SourceAlpha" type="matrix" values="0 0 0 0 0 0 0 0 0 0 0 0 0 0 0 0 0 0 127 0"/>
<feOffset/>
<feGaussianBlur stdDeviation="2"/>
<feColorMatrix type="matrix" values="0 0 0 0 0.490196 0 0 0 0 0.121569 0 0 0 0 0.494118 0 0 0 1 0"/>
<feBlend mode="normal" in2="BackgroundImageFix" result="effect1_dropShadow"/>
<feBlend mode="normal" in="SourceGraphic" in2="effect1_dropShadow" result="shape"/>
</filter>
<filter id="filter1_d" x="0" y="0" width="46" height="46" filterUnits="userSpaceOnUse" color-interpolation-filters="sRGB">
<feFlood flood-opacity="0" result="BackgroundImageFix"/>
<feColorMatrix in="SourceAlpha" type="matrix" values="0 0 0 0 0 0 0 0 0 0 0 0 0 0 0 0 0 0 127 0"/>
<feOffset/>
<feGaussianBlur stdDeviation="4.5"/>
<feColorMatrix type="matrix" values="0 0 0 0 0.490196 0 0 0 0 0.121569 0 0 0 0 0.494118 0 0 0 1 0"/>
<feBlend mode="normal" in2="BackgroundImageFix" result="effect1_dropShadow"/>
<feBlend mode="normal" in="SourceGraphic" in2="effect1_dropShadow" result="shape"/>
</filter>
</defs>
</svg>
