<svg width="36" height="36" viewBox="0 0 36 36" fill="none" xmlns="http://www.w3.org/2000/svg">
<g filter="url(#filter0_d)">
<path d="M32 18C32 25.732 25.732 32 18 32C10.268 32 4 25.732 4 18C4 10.268 10.268 4 18 4C25.732 4 32 10.268 32 18Z" fill="#609EF1"/>
</g>
<g filter="url(#filter1_d)">
<path fill-rule="evenodd" clip-rule="evenodd" d="M18 31.2C25.2902 31.2 31.2 25.2902 31.2 18C31.2 10.7098 25.2902 4.8 18 4.8C10.7098 4.8 4.8 10.7098 4.8 18C4.8 25.2902 10.7098 31.2 18 31.2ZM18 32C25.732 32 32 25.732 32 18C32 10.268 25.732 4 18 4C10.268 4 4 10.268 4 18C4 25.732 10.268 32 18 32Z" fill="#0F54AF"/>
</g>
<path d="M30 18C30 24.6274 24.6274 30 18 30C11.3726 30 6 24.6274 6 18C6 11.3726 11.3726 6 18 6C24.6274 6 30 11.3726 30 18Z" fill="#609EF1"/>
<path fill-rule="evenodd" clip-rule="evenodd" d="M18 29.3C24.2408 29.3 29.3 24.2408 29.3 18C29.3 11.7592 24.2408 6.7 18 6.7C11.7592 6.7 6.7 11.7592 6.7 18C6.7 24.2408 11.7592 29.3 18 29.3ZM18 30C24.6274 30 30 24.6274 30 18C30 11.3726 24.6274 6 18 6C11.3726 6 6 11.3726 6 18C6 24.6274 11.3726 30 18 30Z" fill="#0F54AF"/>
<path d="M20.1271 23L18.214 20.0714C18.1338 20.081 18.0134 20.0857 17.8528 20.0857H15.7391V23H14V13H17.8528C18.6644 13 19.369 13.1429 19.9666 13.4286C20.573 13.7143 21.0368 14.1238 21.3579 14.6571C21.6789 15.1905 21.8395 15.8238 21.8395 16.5571C21.8395 17.3095 21.6656 17.9571 21.3177 18.5C20.9788 19.0429 20.4883 19.4476 19.8462 19.7143L22 23H20.1271ZM20.087 16.5571C20.087 15.919 19.8907 15.4286 19.4983 15.0857C19.1059 14.7429 18.5307 14.5714 17.7726 14.5714H15.7391V18.5571H17.7726C18.5307 18.5571 19.1059 18.3857 19.4983 18.0429C19.8907 17.6905 20.087 17.1952 20.087 16.5571Z" fill="#0F54AF"/>
<defs>
<filter id="filter0_d" x="0" y="0" width="36" height="36" filterUnits="userSpaceOnUse" color-interpolation-filters="sRGB">
<feFlood flood-opacity="0" result="BackgroundImageFix"/>
<feColorMatrix in="SourceAlpha" type="matrix" values="0 0 0 0 0 0 0 0 0 0 0 0 0 0 0 0 0 0 127 0"/>
<feOffset/>
<feGaussianBlur stdDeviation="2"/>
<feColorMatrix type="matrix" values="0 0 0 0 0.376471 0 0 0 0 0.619608 0 0 0 0 0.945098 0 0 0 1 0"/>
<feBlend mode="normal" in2="BackgroundImageFix" result="effect1_dropShadow"/>
<feBlend mode="normal" in="SourceGraphic" in2="effect1_dropShadow" result="shape"/>
</filter>
<filter id="filter1_d" x="0" y="0" width="36" height="36" filterUnits="userSpaceOnUse" color-interpolation-filters="sRGB">
<feFlood flood-opacity="0" result="BackgroundImageFix"/>
<feColorMatrix in="SourceAlpha" type="matrix" values="0 0 0 0 0 0 0 0 0 0 0 0 0 0 0 0 0 0 127 0"/>
<feOffset/>
<feGaussianBlur stdDeviation="2"/>
<feColorMatrix type="matrix" values="0 0 0 0 0.12549 0 0 0 0 0.705882 0 0 0 0 0.537255 0 0 0 1 0"/>
<feBlend mode="normal" in2="BackgroundImageFix" result="effect1_dropShadow"/>
<feBlend mode="normal" in="SourceGraphic" in2="effect1_dropShadow" result="shape"/>
</filter>
</defs>
</svg>
