<svg width="165" height="165" viewBox="0 0 165 165" fill="none" xmlns="http://www.w3.org/2000/svg">
<path d="M23.8188 68.9467L24.0899 67.2887L12.2156 70.5025L11.96 72.0657L22.1946 78.8788L22.4606 77.2524L19.8961 75.5846L20.8567 69.7107L23.8188 68.9467ZM18.7233 74.8254L13.6971 71.5554L19.5031 70.0567L18.7233 74.8254Z" fill="#20B489"/>
<path d="M24.8193 65.4626L25.2788 63.9969L13.9504 60.4455L13.4909 61.9112L24.8193 65.4626Z" fill="#20B489"/>
<path d="M26.3426 60.9273L26.9171 59.5028L15.9069 55.0622L15.3324 56.4867L26.3426 60.9273Z" fill="#20B489"/>
<path d="M25.1452 44.6313C24.4602 45.6745 24.2642 46.8474 24.6757 47.9406L23.5522 47.2029L22.7443 48.4334L32.4274 54.7916L33.2705 53.5076L29.6059 51.1014C30.7546 51.0135 31.7221 50.3854 32.3807 49.3823C33.742 47.3093 33.2899 44.8495 31.1099 43.4181C28.9432 41.9954 26.5064 42.5582 25.1452 44.6313ZM31.187 48.7516C30.3001 50.1025 28.6341 50.4824 27.1228 49.4901C25.6249 48.5065 25.3114 46.8268 26.1984 45.4759C27.0941 44.1117 28.7601 43.7318 30.258 44.7154C31.7693 45.7078 32.0828 47.3875 31.187 48.7516Z" fill="#20B489"/>
<path d="M31.8082 38.3309L30.7449 37.3838L29.7658 38.483L36.0983 44.1231L37.1199 42.9761L33.9656 40.1667C32.5796 38.9323 32.508 37.4972 33.6041 36.2665C33.6786 36.1829 33.753 36.0993 33.8501 36.0143L32.739 35.0246C31.7493 36.1358 31.4293 37.2649 31.8082 38.3309Z" fill="#20B489"/>
<path d="M43.3808 36.887C45.3304 35.2526 45.5911 32.6747 43.967 30.7374C42.3429 28.8002 39.7694 28.6193 37.8198 30.2536C35.8703 31.888 35.5869 34.4639 37.211 36.4012C38.8351 38.3385 41.4313 38.5214 43.3808 36.887ZM42.5174 35.8571C41.2667 36.9055 39.5619 36.7897 38.4004 35.4042C37.2389 34.0186 37.4326 32.3321 38.6833 31.2836C39.9339 30.2351 41.6161 30.349 42.7777 31.7345C43.9392 33.12 43.768 34.8086 42.5174 35.8571Z" fill="#20B489"/>
<path d="M44.4433 23.3866C44.9551 23.0583 45.0768 22.448 44.7659 21.9632C44.4722 21.5053 43.8618 21.3835 43.3635 21.7031C42.8652 22.0227 42.73 22.6417 43.0323 23.1131C43.3347 23.5844 43.945 23.7062 44.4433 23.3866ZM50.0006 35.637C51.4686 34.6955 51.6893 33.2614 50.7564 31.8069L45.9709 24.3457L44.6779 25.1749L49.4807 32.6631C50.0077 33.4846 49.907 34.1574 49.2201 34.598C48.8026 34.8658 48.3478 34.9864 47.9537 34.9351L48.1754 36.1995C48.7291 36.2625 49.408 36.0171 50.0006 35.637Z" fill="#20B489"/>
<path d="M58.2239 22.732C57.0998 20.3787 54.7675 19.5422 52.5586 20.5973C50.3496 21.6525 49.4975 24.0632 50.5802 26.3299C51.6698 28.611 54.0949 29.4563 56.5638 28.277C57.8343 27.6701 58.6813 26.7336 58.9881 25.5941L57.7954 25.0644C57.5288 25.9542 56.9229 26.616 56.0278 27.0436C54.5118 27.7677 53.0015 27.3898 52.1869 26.1298L58.395 23.1645C58.3474 23.0276 58.279 22.8475 58.2239 22.732ZM53.1172 21.7668C54.4599 21.1254 55.8616 21.573 56.6198 22.7889L51.711 25.1336C51.2347 23.7653 51.7889 22.4012 53.1172 21.7668Z" fill="#20B489"/>
<path d="M65.5761 24.8206C67.0345 24.3923 68.0669 23.422 68.378 22.0966L67.0499 21.7196C66.7624 22.6712 66.0724 23.2741 65.182 23.5356C63.5854 24.0045 62.0633 23.2509 61.5448 21.4854C61.0354 19.7507 61.9036 18.2784 63.5002 17.8095C64.3906 17.5479 65.2971 17.6819 66.0535 18.3269L66.9623 17.2762C65.9838 16.3296 64.5952 16.0871 63.1368 16.5154C60.6345 17.2503 59.3434 19.4972 60.0557 21.9228C60.7681 24.3483 63.0737 25.5555 65.5761 24.8206Z" fill="#20B489"/>
<path d="M75.58 21.0558C75.3005 21.3555 74.894 21.5607 74.4508 21.6257C73.6117 21.7488 73.0625 21.3118 72.9302 20.4095L72.2637 15.8661L74.6699 15.5131L74.4865 14.2625L72.0802 14.6155L71.8109 12.7792L70.2911 13.0021L70.5605 14.8384L69.1358 15.0474L69.3192 16.298L70.744 16.089L71.4197 20.6957C71.6682 22.3896 72.7708 23.182 74.4647 22.9335C75.1454 22.8336 75.8141 22.5415 76.2152 22.0784L75.58 21.0558Z" fill="#20B489"/>
<path d="M80.6874 22.4368C82.9431 22.4023 84.336 21.4049 84.3125 19.8691C84.2621 16.5735 78.9117 18.2875 78.881 16.2878C78.8708 15.6158 79.5191 15.1099 80.8629 15.0893C81.6948 15.0766 82.5454 15.2396 83.3209 15.7238L83.9583 14.4979C83.215 14.0292 81.9627 13.7603 80.8589 13.7772C78.6831 13.8105 77.3389 14.8552 77.3622 16.375C77.4139 19.7506 82.748 18.0208 82.7772 19.9246C82.7882 20.6445 82.2029 21.0855 80.779 21.1073C79.6751 21.1242 78.5177 20.7739 77.7899 20.2729L77.1686 21.4986C77.8811 22.0477 79.2795 22.4584 80.6874 22.4368Z" fill="#20B489"/>
<path d="M97.3363 15.3985C96.0704 15.1209 94.9395 15.3479 94.1395 16.0079L95.1233 11.5225L93.6229 11.1934L91.0796 22.7898L92.58 23.1189L93.5157 18.8523C93.9099 17.055 95.1504 16.3279 96.7446 16.6775C98.1668 16.9894 98.8046 17.9647 98.4482 19.59L97.4405 24.1848L98.9408 24.5139L99.9862 19.7472C100.521 17.3091 99.3524 15.8407 97.3363 15.3985Z" fill="#20B489"/>
<path d="M107.649 18.5536C106.39 18.0401 105.075 17.9185 103.994 18.2382L104.152 19.5465C104.97 19.2756 106.052 19.3363 106.985 19.7168C108.392 20.2907 108.805 21.271 108.316 22.471L108.201 22.7525L105.949 21.8344C103.608 20.88 102.37 21.5848 101.857 22.8442C101.301 24.2073 102.04 25.6146 103.818 26.3394C105.048 26.8408 106.091 26.7824 106.855 26.2645L106.433 27.3016L107.781 27.8513L109.714 23.1102C110.59 20.9619 109.798 19.4295 107.649 18.5536ZM104.502 25.3397C103.421 24.8987 102.968 24.144 103.288 23.3588C103.56 22.6921 104.184 22.307 105.591 22.8808L107.784 23.7748L107.337 24.8712C106.613 25.63 105.569 25.7746 104.502 25.3397Z" fill="#20B489"/>
<path d="M120.046 25.0262L113.996 29.3264L114.997 21.9971L113.625 21.174L112.446 30.3555L113.79 31.1621L121.336 25.7999L120.046 25.0262Z" fill="#20B489"/>
<path d="M126.514 35.5086C128.183 33.5052 127.97 31.0366 126.09 29.4693C124.209 27.9021 121.663 28.1335 120.055 30.0631C118.436 32.0051 118.68 34.5618 120.782 36.3134C121.863 37.2149 123.068 37.5939 124.231 37.3973L124.215 36.0924C123.295 36.2214 122.441 35.9468 121.679 35.3117C120.388 34.2361 120.102 32.7058 120.907 31.4398L126.192 35.8446C126.296 35.7442 126.432 35.6069 126.514 35.5086ZM125.26 30.4649C126.403 31.4176 126.581 32.8782 125.793 34.0746L121.614 30.5918C122.658 29.588 124.129 29.5225 125.26 30.4649Z" fill="#20B489"/>
<path d="M137.521 41.5356C136.805 40.5728 135.816 39.9928 134.664 39.9723L138.412 37.184L137.496 35.9515L127.97 43.0368L128.848 44.2179L129.927 43.4158C129.567 44.5408 129.831 45.7003 130.576 46.7016C132.056 48.6915 134.534 49.1014 136.614 47.5545C138.694 46.0075 139.001 43.5255 137.521 41.5356ZM131.578 45.7968C130.614 44.5002 130.828 42.805 132.279 41.726C133.73 40.6469 135.402 40.9384 136.367 42.235C137.341 43.5445 137.139 45.2301 135.688 46.3092C134.237 47.3882 132.552 47.1063 131.578 45.7968Z" fill="#20B489"/>
<path d="M144.671 53.7074L140.744 55.655C139.11 56.4654 137.766 55.9887 137.055 54.5552C136.408 53.2508 136.784 52.1358 138.275 51.3965L142.489 49.3067L141.807 47.9306L137.435 50.0986C135.199 51.2075 134.771 53.0451 135.744 55.0089C136.277 56.084 137.191 56.8097 138.257 56.9777L137.11 57.5464L137.757 58.8508L145.354 55.0834L144.671 53.7074Z" fill="#20B489"/>
<path d="M148.689 64.8303L141.345 64.0152L146.966 59.1999L146.498 57.6699L139.5 63.7265L138.854 63.6396C137.799 63.5273 137.342 63.1819 137.127 62.4782C136.958 61.9274 137.018 61.3569 137.279 60.8421L135.985 60.5519C135.65 61.2065 135.633 62.0817 135.872 62.862C136.251 64.1013 137.072 64.8708 139.006 65.0655L149.129 66.2685L148.689 64.8303Z" fill="#20B489"/>
<path d="M150.368 73.1637C150.207 71.9745 149.622 70.9879 148.624 70.4123L153.254 69.7872L153.049 68.265L141.283 69.8535L141.48 71.3122L142.812 71.1324C141.953 71.9427 141.623 73.0851 141.79 74.3219C142.122 76.7796 144.092 78.338 146.661 77.9912C149.229 77.6443 150.7 75.6214 150.368 73.1637ZM143.105 74.0152C142.888 72.4137 143.897 71.0344 145.689 70.7925C147.48 70.5506 148.803 71.6152 149.019 73.2167C149.237 74.834 148.245 76.2112 146.453 76.4531C144.661 76.695 143.323 75.6325 143.105 74.0152Z" fill="#20B489"/>
<path d="M150.954 83.8618C151.001 82.5026 150.661 81.226 149.988 80.322L148.815 80.9215C149.352 81.5966 149.668 82.6322 149.633 83.6396C149.58 85.1587 148.802 85.8841 147.507 85.839L147.203 85.8284L147.288 83.3979C147.376 80.8714 146.287 79.953 144.928 79.9056C143.457 79.8544 142.391 81.034 142.324 82.9528C142.278 84.28 142.693 85.2391 143.443 85.7775L142.323 85.7385L142.273 87.1936L147.389 87.3718C149.708 87.4526 150.873 86.1803 150.954 83.8618ZM143.499 83.2499C143.539 82.0826 144.091 81.3974 144.939 81.4269C145.658 81.452 146.235 81.9043 146.182 83.4234L146.1 85.79L144.916 85.7488C143.954 85.331 143.458 84.4012 143.499 83.2499Z" fill="#20B489"/>
<path d="M141.143 94.1196C140.84 95.6091 141.216 96.9753 142.242 97.8697L143.196 96.8717C142.489 96.1729 142.279 95.281 142.464 94.3716C142.795 92.741 144.172 91.7475 145.976 92.114C147.747 92.4742 148.643 93.9298 148.312 95.5605C148.127 96.4699 147.585 97.2087 146.661 97.5761L147.166 98.8705C148.46 98.4478 149.323 97.3334 149.626 95.8439C150.145 93.2882 148.762 91.0967 146.285 90.5931C143.807 90.0895 141.663 91.5639 141.143 94.1196Z" fill="#20B489"/>
<path d="M137.56 106.118L136.887 107.882L142.934 105.993L144.936 110.576L145.597 108.842L143.299 103.016L150.415 105.731L150.962 104.296L139.87 100.064L139.322 101.499L141.49 102.326L142.387 104.552L137.56 106.118Z" fill="#20B489"/>
<path d="M137.602 122.892L136.527 122.14C137.7 122.082 138.74 121.404 139.465 120.368C140.868 118.362 140.582 115.897 138.576 114.493C136.57 113.09 134.143 113.657 132.739 115.663C132.042 116.659 131.763 117.811 132.063 118.919L131.512 118.534C129.939 117.433 129.701 116.154 130.848 114.515C131.563 113.492 132.623 112.731 133.624 112.473L133.075 111.192C131.862 111.475 130.609 112.512 129.719 113.784C128.068 116.144 128.311 118.169 130.763 119.884L136.767 124.085L137.602 122.892ZM133.74 116.577C134.721 115.175 136.349 114.83 137.686 115.765C139.037 116.71 139.244 118.339 138.263 119.742C137.29 121.131 135.689 121.495 134.338 120.55C133.001 119.615 132.768 117.967 133.74 116.577Z" fill="#20B489"/>
<path d="M128.925 132.598L125.861 129.462C124.586 128.158 124.625 126.733 125.769 125.615C126.81 124.597 127.987 124.61 129.15 125.8L132.438 129.164L133.537 128.09L130.125 124.601C128.381 122.816 126.501 122.975 124.933 124.507C124.075 125.346 123.667 126.439 123.835 127.505L122.941 126.589L121.899 127.607L127.827 133.671L128.925 132.598Z" fill="#20B489"/>
<path d="M122.266 138.1C123.383 137.325 124.202 136.289 124.524 135.209L123.341 134.627C123.122 135.461 122.481 136.334 121.653 136.909C120.404 137.776 119.358 137.587 118.619 136.522L118.446 136.272L120.443 134.886C122.52 133.444 122.605 132.022 121.829 130.905C120.99 129.696 119.407 129.548 117.83 130.643C116.739 131.4 116.219 132.306 116.236 133.229L115.597 132.309L114.401 133.139L117.321 137.345C118.644 139.251 120.36 139.423 122.266 138.1ZM118.294 131.761C119.254 131.095 120.133 131.128 120.617 131.824C121.027 132.416 121.01 133.148 119.761 134.015L117.816 135.365L117.141 134.393C116.9 133.372 117.348 132.418 118.294 131.761Z" fill="#20B489"/>
<path d="M113.422 141.775L114.064 143.046L115.378 142.382L111.555 134.813L110.184 135.506L112.088 139.276C112.925 140.933 112.465 142.294 110.994 143.037C110.894 143.087 110.794 143.138 110.673 143.181L111.344 144.51C112.672 143.839 113.384 142.906 113.422 141.775Z" fill="#20B489"/>
<path d="M105.611 146.843C106.897 146.402 107.968 145.628 108.572 144.677L107.593 143.795C107.154 144.537 106.3 145.203 105.346 145.53C103.908 146.023 102.953 145.556 102.532 144.33L102.434 144.043L104.734 143.253C107.125 142.433 107.594 141.088 107.152 139.801C106.675 138.409 105.192 137.835 103.376 138.459C102.12 138.89 101.372 139.62 101.137 140.512L100.774 139.453L99.3968 139.926L101.059 144.768C101.812 146.963 103.416 147.596 105.611 146.843ZM103.518 139.661C104.623 139.282 105.46 139.553 105.735 140.355C105.969 141.036 105.753 141.736 104.315 142.23L102.075 142.999L101.691 141.879C101.737 140.831 102.429 140.035 103.518 139.661Z" fill="#20B489"/>
<path d="M93.2313 150.017C94.5587 149.806 95.5557 149.146 96.0369 148.195L96.2371 149.46L97.691 149.229L96.3644 140.854L94.8473 141.094L95.5307 145.408C95.8185 147.226 94.9282 148.355 93.3163 148.61C91.8782 148.838 90.9288 148.162 90.6685 146.519L89.9326 141.872L88.4155 142.113L89.1789 146.933C89.5694 149.398 91.1927 150.34 93.2313 150.017Z" fill="#20B489"/>
<path d="M81.3897 143.919C81.7068 143.66 82.1371 143.511 82.5851 143.505C83.433 143.496 83.9188 144.002 83.9293 144.914L83.9819 149.506L81.55 149.534L81.5645 150.798L83.9963 150.77L84.0176 152.626L85.5535 152.608L85.5322 150.752L86.9721 150.736L86.9577 149.472L85.5178 149.488L85.4645 144.833C85.4448 143.121 84.4581 142.188 82.7462 142.208C82.0583 142.215 81.3565 142.415 80.8971 142.821L81.3897 143.919Z" fill="#20B489"/>
<path d="M70.2352 145.442C69.8938 148.028 71.3924 150.001 73.8194 150.321C76.2463 150.642 78.2754 149.086 78.6043 146.595C78.9352 144.089 77.3635 142.058 74.6511 141.7C73.2552 141.516 72.0344 141.839 71.1557 142.626L71.8666 143.721C72.5753 143.12 73.4441 142.896 74.4276 143.026C76.0931 143.246 77.1529 144.386 77.1485 145.887L70.3277 144.986C70.293 145.127 70.252 145.315 70.2352 145.442ZM73.989 149.036C72.5138 148.842 71.583 147.702 71.6108 146.269L77.004 146.981C76.6569 148.388 75.4484 149.229 73.989 149.036Z" fill="#20B489"/>
<path d="M60.361 142.712C59.6093 145.209 60.772 147.397 63.1162 148.102C65.4603 148.808 67.7126 147.598 68.4367 145.192C69.1653 142.772 67.9398 140.515 65.3199 139.726C63.9716 139.32 62.7148 139.443 61.7212 140.08L62.2473 141.274C63.0431 140.795 63.9366 140.713 64.8865 140.999C66.4953 141.483 67.3584 142.779 67.1134 144.259L60.5254 142.276C60.4685 142.41 60.3979 142.589 60.361 142.712ZM63.4897 146.861C62.0648 146.433 61.3288 145.158 61.5861 143.749L66.7952 145.317C66.227 146.649 64.8992 147.286 63.4897 146.861Z" fill="#20B489"/>
</svg>
