<svg width="46" height="53" viewBox="0 0 46 53" fill="none" xmlns="http://www.w3.org/2000/svg">
<g filter="url(#filter0_d)">
<path d="M42.1324 15.0903C42.1107 13.8177 42.0891 12.6109 42.0891 11.4699C42.0891 10.5703 41.3526 9.82424 40.4645 9.82424C33.5113 9.82424 28.2259 7.80557 23.807 3.46103C23.1789 2.84665 22.1825 2.84665 21.5326 3.46103C17.1137 7.80557 11.8284 9.82424 4.89683 9.82424C4.00872 9.82424 3.27224 10.5703 3.27224 11.4699C3.27224 12.6328 3.25058 13.8396 3.22892 15.0903C3.01231 26.8952 2.70905 43.0885 22.1391 49.9125C22.3124 49.9783 22.4857 50.0002 22.6807 50.0002C22.8756 50.0002 23.0489 49.9783 23.2222 49.9125C42.6523 43.0665 42.349 26.8952 42.1324 15.0903ZM22.6807 46.5992C6.00155 40.4554 6.26148 27.0269 6.4781 15.1342C6.49976 14.4321 6.49976 13.7299 6.52142 13.0497C13.0198 12.7645 18.2401 10.7678 22.6807 6.84011C27.1429 10.7678 32.3416 12.7645 38.8399 13.0497C38.8399 13.7299 38.8616 14.4101 38.8832 15.1342C39.0998 27.0269 39.3598 40.4554 22.6807 46.5992Z" fill="#F5A623"/>
</g>
<path d="M26.5465 26.1523C27.3544 26.4562 27.9952 26.968 28.4688 27.6877C28.9425 28.3915 29.1793 29.2711 29.1793 30.3267C29.1793 31.7822 28.6917 32.9097 27.7166 33.7094C26.7415 34.4931 25.3206 34.885 23.454 34.885H16.1826V18.0914H23.0361C24.7634 18.0914 26.0938 18.4833 27.0271 19.267C27.9604 20.0347 28.427 21.0983 28.427 22.4578C28.427 23.2894 28.2599 24.0252 27.9256 24.6649C27.5912 25.3047 27.1316 25.8005 26.5465 26.1523ZM18.8989 20.5385V25.1687H22.7436C23.6908 25.1687 24.4152 24.9768 24.9167 24.5929C25.4321 24.1931 25.6898 23.6173 25.6898 22.8656C25.6898 22.0979 25.4321 21.5221 24.9167 21.1383C24.4152 20.7384 23.6908 20.5385 22.7436 20.5385H18.8989ZM23.2869 32.4379C25.3903 32.4379 26.442 31.6302 26.442 30.0149C26.442 28.3995 25.3903 27.5918 23.2869 27.5918H18.8989V32.4379H23.2869Z" fill="#F5A623"/>
<defs>
<filter id="filter0_d" x="0.180664" y="0.000244141" width="45" height="53" filterUnits="userSpaceOnUse" color-interpolation-filters="sRGB">
<feFlood flood-opacity="0" result="BackgroundImageFix"/>
<feColorMatrix in="SourceAlpha" type="matrix" values="0 0 0 0 0 0 0 0 0 0 0 0 0 0 0 0 0 0 127 0"/>
<feOffset/>
<feGaussianBlur stdDeviation="1.5"/>
<feColorMatrix type="matrix" values="0 0 0 0 0.964706 0 0 0 0 0.917647 0 0 0 0 0.490196 0 0 0 0.4 0"/>
<feBlend mode="normal" in2="BackgroundImageFix" result="effect1_dropShadow"/>
<feBlend mode="normal" in="SourceGraphic" in2="effect1_dropShadow" result="shape"/>
</filter>
</defs>
</svg>
